<?xml version="1.0" encoding="UTF-8"?> <svg xmlns="http://www.w3.org/2000/svg" width="360" height="360" viewBox="0 0 360 360" fill="none"><rect width="360" height="360" fill="#E3F3FF"></rect><path d="M251.132 167.64C250.98 167.18 250.965 166.711 251.083 166.284C252.435 161.407 251.428 156.231 248.325 152.089C247.756 151.33 247.682 150.318 248.139 149.509C251.574 143.428 249.975 135.944 244.251 131.309C239.446 127.421 231.618 125.936 224.965 131.393C221.117 134.549 218.459 138.934 217.481 143.736C217.344 144.408 216.936 144.978 216.334 145.349C211.182 148.493 206.943 152.946 204.075 158.22C203.868 158.597 203.558 158.922 203.174 159.155C200.099 161.034 197.453 163.438 195.312 166.296C194.926 166.809 194.311 167.141 193.626 167.207C191.994 167.356 190.423 167.789 188.952 168.488C188.179 168.855 187.229 168.778 186.534 168.291C182.625 165.558 177.37 165.558 173.46 168.294C172.769 168.778 171.822 168.855 171.049 168.488C169.578 167.789 168.007 167.356 166.375 167.207C165.69 167.141 165.075 166.812 164.688 166.296C162.548 163.438 159.902 161.037 156.83 159.158C156.443 158.922 156.129 158.594 155.919 158.208C153.051 152.934 148.807 148.484 143.646 145.337C143.064 144.981 142.653 144.399 142.519 143.739C141.542 138.934 138.884 134.549 135.035 131.393C128.382 125.936 120.557 127.418 115.753 131.309C110.028 135.941 108.43 143.425 111.861 149.509C112.318 150.318 112.248 151.331 111.679 152.083C108.573 156.225 107.565 161.401 108.917 166.284C109.036 166.711 109.021 167.18 108.868 167.64C104.478 181.076 107.73 195.728 117.796 207.841C118.268 208.411 118.447 209.176 118.28 209.94C116.613 217.619 121.599 225.052 130.164 225.933C130.654 225.981 131.11 226.175 131.485 226.494C135.673 230.063 141.023 232.499 146.572 232.139C154.803 231.62 163.804 224.831 167.066 212.858C167.291 212.031 167.934 211.38 168.738 211.162C169.502 210.953 170.248 210.681 170.963 210.346C171.81 209.952 172.76 210.006 173.445 210.487C177.367 213.24 182.631 213.24 186.55 210.49C187.238 210.009 188.194 209.952 189.046 210.349C189.756 210.681 190.502 210.956 191.26 211.162C192.067 211.38 192.709 212.031 192.934 212.858C197.383 229.186 213.865 238.975 228.516 226.494C228.89 226.175 229.347 225.981 229.837 225.933C238.413 225.051 243.384 217.605 241.721 209.94C241.556 209.176 241.733 208.411 242.205 207.841C252.268 195.728 255.523 181.073 251.132 167.64ZM129.135 168.652C129.297 169.961 128.345 171.152 127.01 171.31C125.676 171.469 124.461 170.537 124.299 169.226C124.164 168.134 124.057 165.318 125.968 162.751C128.417 159.462 132.523 158.906 134.558 159.094C135.898 159.218 136.881 160.384 136.754 161.697C136.627 163.011 135.434 163.977 134.1 163.851C130.769 163.725 128.799 165.929 129.135 168.652ZM141.461 193.529C141.332 193.602 138.249 195.375 138.095 198.773C137.972 201.462 139.776 203.289 140.138 203.627C141.112 204.537 141.15 206.05 140.222 207.005C139.297 207.958 137.755 208 136.778 207.088C132.263 202.869 131.755 195.728 136.904 190.974C134.757 187.389 134.518 182.979 136.394 179.161C136.978 177.972 138.433 177.473 139.646 178.046C140.857 178.619 141.366 180.047 140.782 181.235C139.385 184.08 139.892 187.464 142.075 189.858C143.11 190.992 142.813 192.777 141.461 193.529ZM172.992 189.703C172.904 191.02 171.744 192.019 170.401 191.929C170.307 191.923 168.062 191.798 166.648 193.464C165.545 194.764 165.624 196.303 165.675 196.744C165.825 198.056 164.864 199.238 163.527 199.386C162.184 199.534 160.984 198.585 160.833 197.279C160.699 196.105 160.631 193.085 162.905 190.406C165.778 187.022 169.921 187.11 170.723 187.162C172.065 187.249 173.081 188.387 172.992 189.703ZM215.754 193.529C215.624 193.602 212.541 195.375 212.387 198.773C212.265 201.462 214.068 203.289 214.431 203.627C215.405 204.537 215.442 206.05 214.514 207.005C213.589 207.958 212.048 208 211.07 207.088C206.555 202.869 206.047 195.728 211.196 190.974C209.05 187.389 208.81 182.979 210.686 179.161C211.27 177.972 212.726 177.473 213.938 178.046C215.15 178.619 215.659 180.047 215.075 181.235C213.677 184.08 214.185 187.464 216.367 189.858C217.403 190.992 217.106 192.777 215.754 193.529ZM231.837 165.325C229.235 165.729 227.402 168.069 227.779 170.696C227.986 172.132 226.85 173.419 225.364 173.419C224.17 173.419 223.126 172.556 222.955 171.362C222.202 166.118 225.889 161.41 231.077 160.606C232.406 160.399 233.653 161.289 233.863 162.593C234.073 163.896 233.166 165.12 231.837 165.325Z" fill="#9ECBEC"></path></svg> 