<?xml version="1.0" encoding="UTF-8"?> <svg xmlns="http://www.w3.org/2000/svg" width="360" height="360" viewBox="0 0 360 360" fill="none"><rect width="360" height="360" fill="#FFE3EC"></rect><g clip-path="url(#clip0_1665_4171)"><path fill-rule="evenodd" clip-rule="evenodd" d="M183.279 128.747C182.901 129.134 182.529 129.523 182.171 129.92C182.429 124.987 186.66 120.599 190.429 121.098C190.577 121.113 190.722 121.145 190.863 121.192C190.613 121.423 190.363 121.663 190.124 121.903L183.279 128.747ZM197.671 176.956L197.643 176.947C197.228 176.864 196.812 176.763 196.396 176.661L196.332 176.642C196.101 176.587 195.879 176.522 195.648 176.458L195.583 176.439L195.112 176.3L194.983 176.263C194.798 176.208 194.623 176.153 194.447 176.088L194.253 176.023C194.124 175.977 193.985 175.931 193.847 175.885L193.542 175.774C193.422 175.728 193.302 175.68 193.173 175.635C193.089 175.598 193.006 175.571 192.914 175.534C192.812 175.488 192.702 175.451 192.591 175.404C192.48 175.358 192.36 175.311 192.249 175.257C192.142 175.219 192.037 175.176 191.935 175.127C191.815 175.072 191.685 175.016 191.565 174.961C191.491 174.924 191.418 174.896 191.343 174.859C191.205 174.795 191.076 174.73 190.937 174.665C190.863 174.628 190.781 174.582 190.697 174.545C190.568 174.481 190.429 174.416 190.3 174.342C190.235 174.305 190.171 174.278 190.106 174.241C189.95 174.157 189.793 174.074 189.644 173.991L189.488 173.908C189.34 173.824 189.192 173.732 189.044 173.649L188.888 173.557C188.732 173.463 188.583 173.372 188.426 173.279L188.297 173.196C188.131 173.095 187.955 172.984 187.789 172.873L187.695 172.818C187.539 172.707 187.372 172.596 187.215 172.485L187.132 172.43C186.966 172.31 186.79 172.189 186.624 172.06L186.541 172.005C186.374 171.875 186.199 171.746 186.033 171.617L185.996 171.598C185.82 171.46 185.654 171.321 185.478 171.183L185.414 171.137C185.248 170.998 185.072 170.85 184.906 170.702L184.869 170.674C184.703 170.527 184.527 170.379 184.361 170.231L184.333 170.203C184.158 170.047 183.991 169.891 183.825 169.733L183.779 169.695L183.279 169.195C183.123 169.048 182.974 168.891 182.817 168.733C182.78 168.687 182.734 168.64 182.688 168.586C182.577 168.466 182.457 168.346 182.346 168.225C182.309 168.179 182.272 168.142 182.235 168.096C182.087 167.94 181.948 167.773 181.81 167.616C181.782 167.579 181.754 167.551 181.727 167.514C181.607 167.385 181.496 167.246 181.385 167.108L181.265 166.96L180.932 166.544C180.91 166.512 180.885 166.481 180.858 166.452C180.729 166.286 180.6 166.11 180.48 165.944C180.443 165.898 180.406 165.842 180.369 165.796L180.092 165.408C180.055 165.353 180.018 165.306 179.981 165.252C179.87 165.086 179.75 164.91 179.639 164.735C179.621 164.707 179.602 164.688 179.584 164.661C179.482 164.504 179.39 164.356 179.288 164.199C179.251 164.143 179.223 164.088 179.187 164.033C179.103 163.894 179.02 163.765 178.946 163.626C178.912 163.579 178.88 163.53 178.853 163.479C178.751 163.303 178.65 163.128 178.548 162.952C178.52 162.897 178.493 162.851 178.465 162.796C178.391 162.667 178.317 162.528 178.243 162.39C178.215 162.325 178.181 162.263 178.142 162.205C178.068 162.057 178.003 161.918 177.929 161.78C177.908 161.732 177.883 161.686 177.855 161.641C177.772 161.466 177.689 161.29 177.605 161.106C177.578 161.041 177.54 160.967 177.513 160.893C177.457 160.773 177.402 160.653 177.347 160.533C177.319 160.459 177.282 160.394 177.253 160.32C177.179 160.145 177.105 159.969 177.031 159.785C177.003 159.725 176.978 159.663 176.957 159.6C176.902 159.471 176.856 159.341 176.809 159.221C176.775 159.14 176.744 159.056 176.717 158.971C176.671 158.852 176.623 158.741 176.588 158.62C176.56 158.547 176.532 158.464 176.504 158.389C176.449 158.214 176.384 158.038 176.329 157.872C176.301 157.778 176.274 157.697 176.246 157.604C176.218 157.503 176.181 157.392 176.152 157.292C176.125 157.198 176.097 157.107 176.069 157.015C176.032 156.895 176.004 156.784 175.968 156.673C175.931 156.534 175.893 156.387 175.857 156.248C175.829 156.137 175.801 156.026 175.773 155.916C175.746 155.814 175.728 155.712 175.7 155.611C175.681 155.517 175.653 155.426 175.635 155.333C175.607 155.223 175.589 155.121 175.561 155.021C175.543 154.929 175.524 154.836 175.506 154.744C175.469 154.559 175.432 154.374 175.404 154.19C175.384 154.107 175.369 154.024 175.358 153.94C175.339 153.829 175.321 153.709 175.303 153.598C175.286 153.522 175.273 153.445 175.266 153.367C175.228 153.117 175.192 152.877 175.164 152.637C175.155 152.6 175.155 152.563 175.145 152.526C175.127 152.406 175.118 152.276 175.099 152.148C175.098 152.083 175.091 152.018 175.081 151.954C175.072 151.824 175.053 151.695 175.044 151.575C175.044 151.529 175.034 151.481 175.034 151.436C175.007 151.168 174.988 150.91 174.979 150.651L174.97 150.522C174.961 150.393 174.951 150.254 174.951 150.116L174.942 149.968C174.933 149.525 174.924 149.081 174.933 148.628V148.527C174.933 148.379 174.933 148.231 174.942 148.083V148.019C174.961 147.548 174.988 147.077 175.025 146.615L175.034 146.532C175.09 145.894 175.164 145.248 175.256 144.61L175.266 144.564C175.339 144.084 175.422 143.613 175.524 143.132L175.533 143.104C175.663 142.458 175.82 141.821 175.995 141.183L176.004 141.155C176.189 140.518 176.393 139.89 176.614 139.262C174.944 138.713 173.306 138.072 171.708 137.34C169.644 140.143 167.045 142.508 164.061 144.299C161.077 146.091 157.767 147.273 154.323 147.777C150.88 148.281 147.37 148.098 143.998 147.237C140.626 146.377 137.457 144.856 134.677 142.763C133.66 145.996 133.467 149.728 134.215 153.792L148.569 161.958C148.846 162.095 149.092 162.288 149.292 162.523C149.492 162.758 149.643 163.031 149.734 163.326C149.825 163.621 149.856 163.932 149.824 164.239C149.792 164.546 149.698 164.844 149.547 165.113C149.396 165.383 149.193 165.619 148.948 165.808C148.704 165.996 148.423 166.133 148.124 166.211C147.825 166.288 147.514 166.303 147.208 166.256C146.903 166.209 146.611 166.101 146.348 165.938L136.049 160.125C120.705 155.275 123.643 189.5 136.233 178.479C135.545 177.967 134.907 177.388 134.331 176.752C133.641 175.981 133.048 175.128 132.566 174.212C132.421 173.948 132.33 173.659 132.297 173.36C132.265 173.061 132.292 172.758 132.377 172.469C132.463 172.181 132.604 171.912 132.794 171.679C132.984 171.445 133.218 171.252 133.483 171.11C133.748 170.967 134.039 170.879 134.338 170.85C134.638 170.821 134.94 170.851 135.227 170.939C135.515 171.028 135.782 171.172 136.014 171.364C136.245 171.557 136.436 171.793 136.575 172.059C136.89 172.649 137.271 173.201 137.712 173.704C138.192 174.224 138.731 174.686 139.319 175.08L139.43 175.163C151.217 183.994 162.883 185.315 169.137 177.944C169.091 177.011 169.054 175.922 169.054 175.838C169.045 172.263 168.232 169.132 166.56 166.463C164.888 163.784 162.32 161.531 158.819 159.738C158.286 159.462 157.884 158.986 157.701 158.414C157.518 157.842 157.569 157.221 157.842 156.687C158.116 156.153 158.589 155.748 159.16 155.562C159.731 155.375 160.352 155.422 160.888 155.693C165.156 157.881 168.315 160.68 170.43 164.063C171.729 166.147 172.637 168.451 173.109 170.861C176.906 181.429 183.381 183.84 192.729 177.512C194.632 177.914 196.611 177.774 198.438 177.106C198.179 177.058 197.93 177.003 197.671 176.956ZM186.503 165.973C182.013 161.456 179.492 155.346 179.492 148.976C179.492 142.607 182.013 136.497 186.503 131.98L193.347 125.136C206.852 111.631 227.22 121.136 224.384 128.72C223.904 130.004 222.814 131.205 221.493 132.119C220.154 133.043 218.63 133.634 217.299 133.682C216.209 133.719 215.277 133.313 214.907 132.241C214.65 131.602 214.589 130.901 214.732 130.227C214.834 129.856 215.055 129.529 215.36 129.294C215.678 129.049 216.059 128.899 216.459 128.86C216.798 128.806 217.145 128.865 217.447 129.026C217.966 129.329 218.584 129.413 219.166 129.262C219.747 129.111 220.245 128.736 220.551 128.219C220.857 127.702 220.946 127.085 220.799 126.502C220.652 125.92 220.281 125.419 219.766 125.109C218.622 124.445 217.292 124.173 215.978 124.334C214.743 124.468 213.567 124.937 212.579 125.692C211.494 126.527 210.712 127.695 210.353 129.017C209.95 130.566 210.038 132.203 210.603 133.7C211.739 137.044 214.409 138.338 217.466 138.227C219.665 138.143 222.057 137.258 224.071 135.862C226.113 134.458 227.821 132.509 228.644 130.31C229.022 129.323 229.21 128.273 229.198 127.216C232.839 131.844 234.662 137.645 234.321 143.524C233.981 149.403 231.502 154.954 227.35 159.131L220.507 165.975C215.988 170.466 209.875 172.986 203.504 172.986C197.134 172.985 191.022 170.464 186.503 165.973ZM208.34 162.656C209.903 164.568 212.377 165.391 215.59 165.326C215.888 165.319 216.183 165.255 216.456 165.135C216.729 165.015 216.976 164.842 217.183 164.627C217.39 164.412 217.552 164.158 217.66 163.88C217.769 163.602 217.822 163.305 217.815 163.006C217.809 162.708 217.744 162.414 217.625 162.14C217.505 161.867 217.332 161.62 217.117 161.413C216.901 161.207 216.647 161.044 216.369 160.936C216.091 160.827 215.795 160.775 215.496 160.781C213.715 160.818 212.457 160.513 211.866 159.783C211.247 159.017 211.127 157.576 211.616 155.331C211.743 154.741 211.631 154.124 211.304 153.616C211.141 153.365 210.931 153.148 210.686 152.978C210.44 152.808 210.163 152.688 209.87 152.625C209.28 152.497 208.663 152.61 208.155 152.937C207.648 153.264 207.291 153.78 207.164 154.37C206.354 158.075 206.816 160.791 208.34 162.656ZM194.9 146.805C196.462 148.717 198.937 149.539 202.151 149.474C202.45 149.468 202.744 149.403 203.017 149.283C203.291 149.164 203.538 148.991 203.744 148.776C203.951 148.56 204.113 148.306 204.222 148.028C204.33 147.75 204.383 147.454 204.377 147.155C204.371 146.857 204.306 146.562 204.186 146.289C204.066 146.016 203.893 145.769 203.678 145.562C203.463 145.355 203.209 145.193 202.931 145.085C202.653 144.976 202.356 144.924 202.058 144.93C200.275 144.967 199.018 144.662 198.427 143.932C197.808 143.165 197.688 141.724 198.177 139.48C198.305 138.889 198.192 138.272 197.865 137.765C197.537 137.257 197.022 136.901 196.431 136.773C195.841 136.646 195.224 136.758 194.717 137.086C194.209 137.413 193.852 137.929 193.725 138.519C192.914 142.224 193.375 144.94 194.9 146.806V146.805ZM190.743 163.386C192.306 165.298 194.78 166.12 197.993 166.056C198.592 166.037 199.158 165.782 199.57 165.348C199.982 164.914 200.206 164.335 200.194 163.737C200.182 163.138 199.934 162.569 199.504 162.152C199.075 161.736 198.498 161.505 197.9 161.511C196.118 161.548 194.861 161.243 194.269 160.522C193.641 159.756 193.531 158.315 194.019 156.061C194.139 155.473 194.023 154.862 193.695 154.36C193.367 153.858 192.854 153.506 192.268 153.379C191.682 153.253 191.07 153.363 190.564 153.685C190.059 154.007 189.7 154.515 189.567 155.1C188.757 158.814 189.219 161.521 190.743 163.387L190.743 163.386ZM163.125 250.061C163.219 238.043 163.3 225.803 155.116 217.61L128.973 191.469C127.856 190.352 126.342 189.725 124.763 189.723C123.183 189.721 121.668 190.346 120.548 191.46C120.525 191.479 120.503 191.5 120.484 191.524C119.394 192.649 118.79 194.156 118.803 195.722C118.815 197.287 119.442 198.786 120.548 199.893L142.072 221.424C142.474 221.857 142.693 222.429 142.682 223.019C142.671 223.61 142.432 224.173 142.014 224.591C141.597 225.009 141.033 225.248 140.442 225.259C139.852 225.27 139.28 225.051 138.848 224.648L117.325 203.117C115.479 201.26 114.39 198.783 114.269 196.168C114.147 193.553 115.003 190.986 116.668 188.966L116.548 143.74C116.548 141.357 115.117 139.823 113.278 139.149C112.465 138.852 111.604 138.705 110.738 138.715C109.868 138.712 109.004 138.865 108.188 139.167C106.332 139.851 104.873 141.403 104.873 143.814L104.817 208.29C104.808 218.35 111.727 225.001 118.996 231.966C126.765 239.42 134.894 247.226 136.64 260.001H163.225C163.077 256.776 163.105 253.423 163.125 250.061ZM255.128 143.813C255.118 141.402 253.668 139.85 251.802 139.166C250.989 138.865 250.129 138.711 249.262 138.713C248.395 138.703 247.535 138.85 246.721 139.148C244.883 139.822 243.451 141.355 243.442 143.738L243.322 188.964C244.987 190.984 245.842 193.55 245.722 196.165C245.603 198.779 244.517 201.256 242.675 203.116L221.153 224.647C220.725 225.076 220.145 225.317 219.539 225.318C218.934 225.319 218.353 225.079 217.924 224.652C217.495 224.224 217.254 223.644 217.253 223.038C217.252 222.433 217.492 221.852 217.919 221.423L239.451 199.892C240.553 198.782 241.177 197.283 241.187 195.719C241.198 194.154 240.594 192.647 239.506 191.523C239.49 191.499 239.471 191.478 239.451 191.458H239.442C238.324 190.345 236.81 189.72 235.232 189.722C233.654 189.723 232.141 190.351 231.026 191.468L204.875 217.61C196.691 225.803 196.783 238.043 196.866 250.061C196.894 253.423 196.913 256.776 196.773 260H223.348C225.094 247.225 233.223 239.419 240.992 231.965C248.262 225 255.189 218.349 255.179 208.289L255.128 143.813ZM128.77 121.745C128.771 117.443 130.047 113.238 132.438 109.662C134.829 106.086 138.227 103.299 142.201 101.654C146.176 100.008 150.549 99.5787 154.768 100.419C158.987 101.259 162.862 103.332 165.903 106.374C168.944 109.417 171.015 113.293 171.853 117.512C172.691 121.731 172.259 126.104 170.612 130.078C168.965 134.052 166.176 137.448 162.599 139.837C159.022 142.226 154.816 143.501 150.514 143.5C144.749 143.487 139.224 141.191 135.149 137.113C131.074 133.036 128.78 127.51 128.77 121.745ZM138.895 126.382H145.888V133.365H155.153V126.382H162.145V117.117H155.152V110.125H145.887V117.117H138.894L138.895 126.382Z" fill="#EFB6C9"></path></g><defs><clipPath id="clip0_1665_4171"><rect width="160" height="160" fill="white" transform="translate(100 100)"></rect></clipPath></defs></svg> 